<mxfile host="Electron" agent="Mozilla/5.0 (Windows NT 10.0; Win64; x64) AppleWebKit/537.36 (KHTML, like Gecko) draw.io/28.1.2 Chrome/138.0.7204.243 Electron/37.4.0 Safari/537.36" version="28.1.2">
  <diagram name="Page-1" id="hhOlWyLL6njTMh-Wefkd">
    <mxGraphModel dx="1042" dy="626" grid="1" gridSize="10" guides="1" tooltips="1" connect="1" arrows="1" fold="1" page="1" pageScale="1" pageWidth="850" pageHeight="1100" math="0" shadow="0">
      <root>
        <mxCell id="0" />
        <mxCell id="1" parent="0" />
        <mxCell id="jyaX-XvnEwWtfqLEjSU6-1" value="STUDENT INFORMATION SYSTEM" style="rounded=0;whiteSpace=wrap;html=1;" vertex="1" parent="1">
          <mxGeometry x="300" y="50" width="360" height="60" as="geometry" />
        </mxCell>
        <mxCell id="jyaX-XvnEwWtfqLEjSU6-4" value="" style="edgeStyle=orthogonalEdgeStyle;rounded=0;orthogonalLoop=1;jettySize=auto;html=1;" edge="1" parent="1" source="jyaX-XvnEwWtfqLEjSU6-2" target="jyaX-XvnEwWtfqLEjSU6-3">
          <mxGeometry relative="1" as="geometry" />
        </mxCell>
        <mxCell id="jyaX-XvnEwWtfqLEjSU6-6" value="" style="edgeStyle=orthogonalEdgeStyle;rounded=0;orthogonalLoop=1;jettySize=auto;html=1;" edge="1" parent="1" source="jyaX-XvnEwWtfqLEjSU6-2" target="jyaX-XvnEwWtfqLEjSU6-5">
          <mxGeometry relative="1" as="geometry" />
        </mxCell>
        <mxCell id="jyaX-XvnEwWtfqLEjSU6-2" value="ADMIN" style="rounded=0;whiteSpace=wrap;html=1;" vertex="1" parent="1">
          <mxGeometry x="50" y="160" width="120" height="60" as="geometry" />
        </mxCell>
        <mxCell id="jyaX-XvnEwWtfqLEjSU6-3" value="LOGIN TO&lt;div&gt;SYSTEM&lt;/div&gt;" style="ellipse;whiteSpace=wrap;html=1;rounded=0;" vertex="1" parent="1">
          <mxGeometry x="270" y="150" width="80" height="80" as="geometry" />
        </mxCell>
        <mxCell id="jyaX-XvnEwWtfqLEjSU6-8" value="" style="edgeStyle=orthogonalEdgeStyle;rounded=0;orthogonalLoop=1;jettySize=auto;html=1;" edge="1" parent="1" source="jyaX-XvnEwWtfqLEjSU6-5" target="jyaX-XvnEwWtfqLEjSU6-7">
          <mxGeometry relative="1" as="geometry" />
        </mxCell>
        <mxCell id="jyaX-XvnEwWtfqLEjSU6-5" value="FORGET&lt;div&gt;PASSWORD&lt;/div&gt;" style="ellipse;whiteSpace=wrap;html=1;rounded=0;" vertex="1" parent="1">
          <mxGeometry x="70" y="290" width="80" height="80" as="geometry" />
        </mxCell>
        <mxCell id="jyaX-XvnEwWtfqLEjSU6-7" value="SEND EMAIL&lt;div&gt;TO&amp;nbsp;&lt;/div&gt;&lt;div&gt;USER&lt;/div&gt;" style="ellipse;whiteSpace=wrap;html=1;rounded=0;" vertex="1" parent="1">
          <mxGeometry x="70" y="450" width="80" height="80" as="geometry" />
        </mxCell>
        <mxCell id="jyaX-XvnEwWtfqLEjSU6-10" value="CHECK&amp;nbsp;&lt;div&gt;ROLES OF&#39;&lt;/div&gt;&lt;div&gt;ACCESS&lt;/div&gt;" style="ellipse;whiteSpace=wrap;html=1;rounded=0;" vertex="1" parent="1">
          <mxGeometry x="430" y="150" width="80" height="80" as="geometry" />
        </mxCell>
        <mxCell id="jyaX-XvnEwWtfqLEjSU6-17" value="" style="edgeStyle=orthogonalEdgeStyle;rounded=0;orthogonalLoop=1;jettySize=auto;html=1;entryX=0.623;entryY=-0.04;entryDx=0;entryDy=0;entryPerimeter=0;" edge="1" parent="1" source="jyaX-XvnEwWtfqLEjSU6-12" target="jyaX-XvnEwWtfqLEjSU6-19">
          <mxGeometry relative="1" as="geometry">
            <mxPoint x="470" y="520" as="targetPoint" />
          </mxGeometry>
        </mxCell>
        <mxCell id="jyaX-XvnEwWtfqLEjSU6-12" value="MANAGE&lt;br&gt;&lt;div&gt;MODULES&lt;/div&gt;" style="ellipse;whiteSpace=wrap;html=1;rounded=0;" vertex="1" parent="1">
          <mxGeometry x="430" y="310" width="80" height="80" as="geometry" />
        </mxCell>
        <mxCell id="jyaX-XvnEwWtfqLEjSU6-14" value="CHECK&amp;nbsp;&lt;div&gt;CREDINTAILS&lt;/div&gt;" style="ellipse;whiteSpace=wrap;html=1;rounded=0;" vertex="1" parent="1">
          <mxGeometry x="270" y="310" width="80" height="80" as="geometry" />
        </mxCell>
        <mxCell id="jyaX-XvnEwWtfqLEjSU6-28" style="edgeStyle=orthogonalEdgeStyle;rounded=0;orthogonalLoop=1;jettySize=auto;html=1;exitX=1;exitY=0.5;exitDx=0;exitDy=0;" edge="1" parent="1" source="jyaX-XvnEwWtfqLEjSU6-19">
          <mxGeometry relative="1" as="geometry">
            <mxPoint x="540" y="590" as="targetPoint" />
          </mxGeometry>
        </mxCell>
        <mxCell id="jyaX-XvnEwWtfqLEjSU6-19" value="MANAGE USER PERMISSION" style="whiteSpace=wrap;html=1;" vertex="1" parent="1">
          <mxGeometry x="340" y="560" width="210" height="60" as="geometry" />
        </mxCell>
        <mxCell id="jyaX-XvnEwWtfqLEjSU6-20" value="MANAGE ROLES OF USER" style="whiteSpace=wrap;html=1;" vertex="1" parent="1">
          <mxGeometry x="170" y="560" width="160" height="60" as="geometry" />
        </mxCell>
        <mxCell id="jyaX-XvnEwWtfqLEjSU6-22" value="MANAGE SYSTEM ADMINS" style="whiteSpace=wrap;html=1;" vertex="1" parent="1">
          <mxGeometry x="10" y="560" width="150" height="60" as="geometry" />
        </mxCell>
        <mxCell id="jyaX-XvnEwWtfqLEjSU6-24" value="" style="endArrow=classic;html=1;rounded=0;exitX=0.5;exitY=1;exitDx=0;exitDy=0;entryX=0.75;entryY=0;entryDx=0;entryDy=0;" edge="1" parent="1" source="jyaX-XvnEwWtfqLEjSU6-12" target="jyaX-XvnEwWtfqLEjSU6-20">
          <mxGeometry width="50" height="50" relative="1" as="geometry">
            <mxPoint x="510" y="550" as="sourcePoint" />
            <mxPoint x="560" y="500" as="targetPoint" />
            <Array as="points">
              <mxPoint x="470" y="390" />
            </Array>
          </mxGeometry>
        </mxCell>
        <mxCell id="jyaX-XvnEwWtfqLEjSU6-25" value="" style="endArrow=classic;html=1;rounded=0;entryX=0.75;entryY=0;entryDx=0;entryDy=0;" edge="1" parent="1" target="jyaX-XvnEwWtfqLEjSU6-22">
          <mxGeometry width="50" height="50" relative="1" as="geometry">
            <mxPoint x="470" y="390" as="sourcePoint" />
            <mxPoint x="560" y="500" as="targetPoint" />
            <Array as="points">
              <mxPoint x="470" y="390" />
            </Array>
          </mxGeometry>
        </mxCell>
        <mxCell id="jyaX-XvnEwWtfqLEjSU6-26" value="" style="endArrow=classic;html=1;rounded=0;" edge="1" parent="1" target="jyaX-XvnEwWtfqLEjSU6-10">
          <mxGeometry width="50" height="50" relative="1" as="geometry">
            <mxPoint x="340" y="320" as="sourcePoint" />
            <mxPoint x="560" y="200" as="targetPoint" />
            <Array as="points">
              <mxPoint x="340" y="320" />
            </Array>
          </mxGeometry>
        </mxCell>
        <mxCell id="jyaX-XvnEwWtfqLEjSU6-27" value="" style="endArrow=classic;html=1;rounded=0;exitX=0.5;exitY=1;exitDx=0;exitDy=0;entryX=0.5;entryY=0;entryDx=0;entryDy=0;" edge="1" parent="1" source="jyaX-XvnEwWtfqLEjSU6-3" target="jyaX-XvnEwWtfqLEjSU6-14">
          <mxGeometry width="50" height="50" relative="1" as="geometry">
            <mxPoint x="510" y="350" as="sourcePoint" />
            <mxPoint x="560" y="300" as="targetPoint" />
          </mxGeometry>
        </mxCell>
        <mxCell id="jyaX-XvnEwWtfqLEjSU6-29" value="MANAGE TIMETABLE&lt;div&gt;DETAILS&lt;/div&gt;" style="rounded=0;whiteSpace=wrap;html=1;" vertex="1" parent="1">
          <mxGeometry x="580" y="130" width="120" height="60" as="geometry" />
        </mxCell>
        <mxCell id="jyaX-XvnEwWtfqLEjSU6-30" value="MANAGE&lt;div&gt;ATTENDENCE&amp;nbsp;&lt;/div&gt;&lt;div&gt;DETAILS&lt;/div&gt;" style="whiteSpace=wrap;html=1;rounded=0;" vertex="1" parent="1">
          <mxGeometry x="580" y="200" width="120" height="60" as="geometry" />
        </mxCell>
        <mxCell id="jyaX-XvnEwWtfqLEjSU6-32" value="MANAGE CLASS DETAILS" style="whiteSpace=wrap;html=1;rounded=0;" vertex="1" parent="1">
          <mxGeometry x="580" y="270" width="120" height="30" as="geometry" />
        </mxCell>
        <mxCell id="jyaX-XvnEwWtfqLEjSU6-34" value="MANAGE STUDENT DETAILS" style="whiteSpace=wrap;html=1;rounded=0;" vertex="1" parent="1">
          <mxGeometry x="580" y="310" width="120" height="60" as="geometry" />
        </mxCell>
        <mxCell id="jyaX-XvnEwWtfqLEjSU6-36" value="MANAGE FEES DETAILS" style="whiteSpace=wrap;html=1;rounded=0;" vertex="1" parent="1">
          <mxGeometry x="580" y="380" width="120" height="60" as="geometry" />
        </mxCell>
        <mxCell id="jyaX-XvnEwWtfqLEjSU6-38" value="MANAGE TEACHER&lt;div&gt;PROFILES&lt;/div&gt;" style="whiteSpace=wrap;html=1;rounded=0;" vertex="1" parent="1">
          <mxGeometry x="580" y="450" width="120" height="60" as="geometry" />
        </mxCell>
        <mxCell id="jyaX-XvnEwWtfqLEjSU6-40" value="MANAGE REPORT" style="whiteSpace=wrap;html=1;rounded=0;" vertex="1" parent="1">
          <mxGeometry x="580" y="520" width="120" height="30" as="geometry" />
        </mxCell>
      </root>
    </mxGraphModel>
  </diagram>
</mxfile>
